:SAMPLES-PER-SECOND 30
:FRAME-RANGE 1-1770
:FULLY-SPECIFIED
:DEGREES
1494
root  -4.6959 39.3217 -44.9047 -178.046 -27.7608 176.995
RightUpLeg  -19.5383 -6.48116 -2.99361
RightLeg  17.1558 2.12417 0.840186
RightFoot  1.66139 -0.302859 2.75585
RightToes  6.35937e-011 1.2921e-014 -6.02303e-014
Spine  8.98637 -1.96895 1.63972
Spine1  -1.73745 -2.05414 1.54151
HEad  8.27683 1.72071 -4.84555
LeftShoulder1  1.77563 -1.90925 -26.6756
LeftArm  10.8836 -22.4744 -46.985
LeftForeArm  26.838 -40.7464 -7.90561
LeftHand  -0.191074 -1.96214 3.19773
RightShoulder  8.71458 11.9119 49.5105
RightArm  8.49501 1.92847 17.0528
RightForeArm  15.059 2.72638 16.193
RightHand  0.0137376 2.40434 0.00965202
LeftUpLeg  -4.96378 4.46379 4.23607
LeftLeg  29.0381 3.90555 2.68647
LeftFoot  -8.23269 0.355316 -11.2533
LeftToes  3.18074e-010 1.39432e-010 -7.71186e-011
1495
root  -4.53386 39.6935 -45.1098 -176.463 -30.4745 176.08
RightUpLeg  -17.6531 -7.54029 -4.21776
RightLeg  12.4331 0.226326 1.28826
RightFoot  3.32111 -0.325834 2.70796
RightToes  6.35937e-011 1.2921e-014 -6.02303e-014
Spine  8.39683 -2.05837 1.44262
Spine1  -1.46542 -2.20276 1.47095
HEad  7.51928 0.27485 -5.04057
LeftShoulder1  1.85041 -1.95426 -27.8104
LeftArm  17.4333 -19.3273 -48.0437
LeftForeArm  23.8785 -34.9 -6.42309
LeftHand  -0.2019 -2.59676 3.1485
RightShoulder  8.21514 11.2531 48.76
RightArm  7.44894 1.1354 15.8762
RightForeArm  18.3413 -0.0436155 16.614
RightHand  -0.0034975 2.13962 -0.233979
LeftUpLeg  -5.27845 9.01575 3.19756
LeftLeg  25.4512 -0.691319 -0.0243091
LeftFoot  -7.68049 0.529752 -15.07
LeftToes  3.18074e-010 1.39432e-010 -7.71186e-011
1496
root  -4.35877 39.9305 -45.2309 -174.729 -32.6812 175.219
RightUpLeg  -16.6168 -8.08293 -5.33167
RightLeg  8.67608 -1.6075 2.00303
RightFoot  4.71409 -0.338704 2.62946
RightToes  6.35937e-011 1.2921e-014 -6.02303e-014
Spine  7.92866 -2.03013 1.49154
Spine1  -1.5363 -2.13175 0.937151
HEad  6.7455 -1.25804 -5.13136
LeftShoulder1  1.87447 -1.88837 -28.6922
LeftArm  24.2847 -16.5996 -48.8906
LeftForeArm  17.7196 -28.5639 -5.21405
LeftHand  -0.198062 -2.57893 3.09816
RightShoulder  7.25834 9.70076 48.1502
RightArm  8.73454 1.18271 14.7891
RightForeArm  20.8155 -1.66872 16.9355
RightHand  -0.0575752 2.13437 -1.06959
LeftUpLeg  -5.62928 13.3212 2.01205
LeftLeg  22.5001 -3.07338 -1.06888
LeftFoot  -7.76399 0.584016 -17.11
LeftToes  3.18074e-010 1.39432e-010 -7.71186e-011
1497
root  -4.19372 40.0588 -45.3494 -173.74 -35.4228 174.837
RightUpLeg  -15.5252 -8.92942 -5.88564
RightLeg  6.05809 -3.659 2.626
RightFoot  5.55588 -0.282282 2.1561
RightToes  6.35937e-011 1.2921e-014 -6.02303e-014
Spine  6.92926 -2.15814 1.4769
Spine1  -0.421821 -2.32733 1.01289
HEad  6.13013 -3.06695 -5.04154
LeftShoulder1  1.90533 -1.8661 -29.4256
LeftArm  31.3737 -14.4547 -49.3573
LeftForeArm  8.11281 -22.9256 -4.71222
LeftHand  -0.162053 -2.28808 2.64694
RightShoulder  6.56095 8.70119 47.0781
RightArm  9.59511 0.337798 14.0362
RightForeArm  20.9893 -1.85731 17.0619
RightHand  -0.0543479 2.3056 -1.01084
LeftUpLeg  -5.30872 16.4724 1.59037
LeftLeg  20.1322 -2.62022 -0.736994
LeftFoot  -7.74155 0.591917 -17.2554
LeftToes  3.18074e-010 1.39432e-010 -7.71186e-011
1498
root  -4.02286 40.1194 -45.4447 -173.1 -37.9925 174.772
RightUpLeg  -14.8043 -9.413 -6.06881
RightLeg  4.37552 -5.82293 3.13349
RightFoot  6.02924 -0.217969 1.69703
RightToes  6.35937e-011 1.2921e-014 -6.02303e-014
Spine  6.53261 -2.32094 1.49218
Spine1  -0.206542 -2.5388 1.1187
HEad  6.01119 -4.89804 -4.65407
LeftShoulder1  1.89713 -1.71633 -30.2981
LeftArm  26.6899 -12.4504 -47.9798
LeftForeArm  8.7827 -16.9521 -9.67818
LeftHand  -0.0908954 -1.96931 1.60896
RightShoulder  5.88351 7.56562 46.5426
RightArm  10.6324 -0.27051 13.0402
RightForeArm  19.4653 -1.89499 17.3066
RightHand  -0.0367291 2.25544 -0.745416
LeftUpLeg  -4.63853 18.8628 1.74059
LeftLeg  18.3238 -0.934348 -0.0194711
LeftFoot  -7.38218 0.604707 -16.1311
LeftToes  3.18074e-010 1.39432e-010 -7.71186e-011
1499
root  -3.85545 40.1464 -45.4974 -172.821 -40.559 174.972
RightUpLeg  -14.2583 -9.71858 -6.09085
RightLeg  3.32598 -8.05744 3.5922
RightFoot  6.35691 -0.159979 1.3073
RightToes  6.35937e-011 1.2921e-014 -6.02303e-014
Spine  6.15078 -2.54319 1.46013
Spine1  0.0380214 -2.82991 1.37001
HEad  6.40091 -6.87685 -4.21541
LeftShoulder1  1.87888 -1.56493 -31.0295
LeftArm  16.9735 -10.8982 -45.6908
LeftForeArm  13.2397 -9.37472 -14.9464
LeftHand  -0.0223751 -1.19492 0.511775
RightShoulder  5.42063 6.77706 46.1648
RightArm  10.0085 -0.441105 12.1455
RightForeArm  19.0768 -3.05564 17.4349
RightHand  -0.022169 2.04439 -0.521035
LeftUpLeg  -3.81522 20.4283 2.39421
LeftLeg  17.4086 -0.00600325 0.314643
LeftFoot  -7.33098 0.590844 -15.5464
LeftToes  3.18074e-010 1.39432e-010 -7.71186e-011
1500
root  -3.64995 40.1416 -45.4546 -172.361 -42.7772 175.099
RightUpLeg  -14.3048 -9.80884 -6.04904
RightLeg  2.58801 -10.245 3.85081
RightFoot  6.66749 -0.12986 1.10793
RightToes  6.35937e-011 1.2921e-014 -6.02303e-014
Spine  6.0013 -2.62825 1.1318
Spine1  -0.144955 -2.98967 1.66729
HEad  6.65342 -9.25663 -3.7258
LeftShoulder1  1.87651 -1.49633 -31.4927
LeftArm  10.3041 -9.32254 -43.2185
LeftForeArm  14.5477 -2.28655 -17.5409
LeftHand  0.0400398 -0.656397 -0.705212
RightShoulder  5.23676 6.48181 45.9121
RightArm  7.57684 -0.57263 11.3181
RightForeArm  20.3063 -4.88542 17.2243
RightHand  -0.0158055 1.96728 -0.4193
LeftUpLeg  -3.36321 21.5931 2.95378
LeftLeg  17.2051 0.411695 0.43298
LeftFoot  -7.38192 0.56682 -15.0515
LeftToes  3.18074e-010 1.39432e-010 -7.71186e-011
1501
root  -3.42936 40.1368 -45.3598 -172.068 -44.9245 175.254
RightUpLeg  -14.2031 -9.84152 -6.01
RightLeg  1.62903 -12.382 4.15288
RightFoot  7.2018 -0.0810751 0.799371
RightToes  6.35937e-011 1.2921e-014 -6.02303e-014
Spine  5.72528 -2.65603 0.72088
Spine1  0.0124353 -3.0722 1.84404
HEad  6.54931 -12.2475 -2.89714
LeftShoulder1  1.87681 -1.48876 -31.5557
LeftArm  7.74374 -7.55285 -41.0736
LeftForeArm  12.4045 2.44088 -18.4417
LeftHand  0.0868246 -0.0305583 -1.8726
RightShoulder  5.11061 6.26946 45.7769
RightArm  5.34509 -0.475439 10.7629
RightForeArm  20.6193 -5.85364 17.0023
RightHand  -0.0173817 2.16563 -0.449049
LeftUpLeg  -2.65189 22.7153 3.68217
LeftLeg  17.0932 1.40767 0.747764
LeftFoot  -7.05994 0.593211 -14.6761
LeftToes  3.18074e-010 1.39432e-010 -7.71186e-011
1502
root  -3.19964 40.1294 -45.2082 -171.934 -46.8385 175.603
RightUpLeg  -14.0716 -9.67471 -5.86206
RightLeg  0.330906 -14.4283 4.52242
RightFoot  8.057 -0.00961621 0.380225
RightToes  6.35937e-011 1.2921e-014 -6.02303e-014
Spine  5.46007 -2.59202 0.498205
Spine1  0.0724112 -2.98893 1.69803
HEad  6.23976 -15.6212 -1.97496
LeftShoulder1  1.84922 -1.42129 -31.5096
LeftArm  5.80603 -5.22903 -38.7124
LeftForeArm  10.8491 3.34549 -18.5336
LeftHand  0.109862 0.536428 -2.72782
RightShoulder  5.06727 6.20302 45.6974
RightArm  3.442 -0.428597 10.4779
RightForeArm  20.7275 -6.18056 16.7861
RightHand  -1.86933e-005 2.0542 -0.175074
LeftUpLeg  -1.83997 24.2245 4.59646
LeftLeg  16.953 3.18818 1.28416
LeftFoot  -6.83742 0.57123 -13.4378
LeftToes  3.18074e-010 1.39432e-010 -7.71186e-011
1503
root  -2.97698 40.1171 -44.9861 -171.912 -48.5854 175.904
RightUpLeg  -13.8644 -9.72664 -5.88828
RightLeg  -1.02239 -16.0801 5.0923
RightFoot  8.98079 0.0563274 0.0306123
RightToes  6.35937e-011 1.2921e-014 -6.02303e-014
Spine  5.4681 -2.50147 0.238546
Spine1  -0.141489 -2.85391 1.42081
HEad  5.89255 -19.5341 -0.690464
LeftShoulder1  1.80108 -1.27818 -31.6253
LeftArm  4.21284 -2.4612 -36.0818
LeftForeArm  9.91622 3.71761 -18.4697
LeftHand  0.124753 0.77146 -3.28114
RightShoulder  5.08185 6.24256 45.6408
RightArm  2.76625 -0.294144 10.4084
RightForeArm  19.9256 -6.33948 16.7176
RightHand  0.0085712 2.10021 -0.0444847
LeftUpLeg  -0.693143 26.1919 5.54201
LeftLeg  16.4362 5.94717 1.86153
LeftFoot  -6.22991 0.57661 -12.0494
LeftToes  3.18074e-010 1.39432e-010 -7.71186e-011
1504
root  -2.76072 40.0814 -44.6823 -171.947 -50.1901 176.292
RightUpLeg  -13.901 -9.82638 -5.96097
RightLeg  -2.14386 -17.6331 5.67957
RightFoot  9.87493 0.105914 -0.202093
RightToes  6.35937e-011 1.2921e-014 -6.02303e-014
Spine  5.20588 -2.43985 0.031765
Spine1  -0.0600027 -2.73641 1.01796
HEad  5.5062 -22.8298 0.244926
LeftShoulder1  1.7366 -1.09044 -31.759
LeftArm  2.40226 0.48281 -33.5748
LeftForeArm  10.3116 3.35065 -18.1985
LeftHand  0.130721 0.775587 -3.4366
RightShoulder  5.23696 6.54088 45.6347
RightArm  2.38089 0.223542 10.5203
RightForeArm  20.5631 -6.04877 16.6137
RightHand  0.00400093 2.09365 -0.114997
LeftUpLeg  0.415138 28.1953 6.46912
LeftLeg  15.8938 10.0872 2.48394
LeftFoot  -5.22125 0.586398 -10.3641
LeftToes  3.18074e-010 1.39432e-010 -7.71186e-011
1505
root  -2.54913 40.0198 -44.2917 -172.372 -51.8494 176.911
RightUpLeg  -13.8941 -9.95094 -6.05807
RightLeg  -3.04342 -19.1478 6.23022
RightFoot  10.7308 0.145302 -0.365273
RightToes  6.35937e-011 1.2921e-014 -6.02303e-014
Spine  4.97643 -2.40613 -0.0845477
Spine1  0.13091 -2.65227 0.657234
HEad  5.26521 -25.7159 1.15012
LeftShoulder1  1.672 -0.928817 -31.6776
LeftArm  1.19324 3.10143 -31.765
LeftForeArm  11.1978 1.20467 -17.7708
LeftHand  0.13098 0.476905 -3.3935
RightShoulder  5.4235 6.91021 45.5799
RightArm  1.93338 0.959982 10.7897
RightForeArm  21.4497 -5.0373 16.4902
RightHand  0.00263684 2.15328 -0.140119
LeftUpLeg  1.47896 30.1095 7.433
LeftLeg  15.6129 14.6349 3.04445
LeftFoot  -4.37512 0.576669 -9.0311
LeftToes  3.18074e-010 1.39432e-010 -7.71186e-011
1506
root  -2.32438 39.9335 -43.8005 -172.952 -53.7065 177.567
RightUpLeg  -13.885 -10.3087 -6.36269
RightLeg  -3.80727 -20.6475 6.86289
RightFoot  11.659 0.162694 -0.403607
RightToes  6.35937e-011 1.2921e-014 -6.02303e-014
Spine  4.84488 -2.3804 -0.312193
Spine1  0.217488 -2.61453 0.513389
HEad  5.13423 -28.4812 2.21402
LeftShoulder1  1.61369 -0.793242 -31.5082
LeftArm  1.2969 4.93883 -30.7839
LeftForeArm  11.5645 -1.0107 -17.3157
LeftHand  0.12555 0.215082 -2.99479
RightShoulder  5.58597 7.22807 45.5519
RightArm  1.63687 1.68456 11.1042
RightForeArm  21.0377 -3.32002 16.3724
RightHand  0.0132732 2.21754 0.0183236
LeftUpLeg  2.27386 30.8288 7.97449
LeftLeg  15.4105 18.7424 3.30436
LeftFoot  -4.31919 0.643546 -10.0488
LeftToes  3.18074e-010 1.39432e-010 -7.71186e-011
1507
root  -2.08058 39.837 -43.207 -173.547 -55.9379 178.106
RightUpLeg  -13.7531 -10.7988 -6.90845
RightLeg  -4.71185 -22.4004 7.47097
RightFoot  12.7712 0.170321 -0.383516
RightToes  6.35937e-011 1.2921e-014 -6.02303e-014
Spine  4.79152 -2.43613 -0.61607
Spine1  0.225393 -2.65722 0.378281
HEad  5.20502 -31.1232 3.08609
LeftShoulder1  1.5742 -0.704948 -31.3558
LeftArm  1.2633 5.88995 -30.408
LeftForeArm  11.8288 -2.81581 -16.8054
LeftHand  0.120915 0.0143973 -2.63654
RightShoulder  5.74135 7.50433 45.6455
RightArm  1.59262 2.36315 11.3818
RightForeArm  20.2983 -1.16599 16.1382
RightHand  0.0162236 2.26517 0.0590839
LeftUpLeg  2.34561 29.441 7.68546
LeftLeg  15.0204 21.6638 2.93263
LeftFoot  -6.58253 0.525233 -11.6622
LeftToes  3.18074e-010 1.39432e-010 -7.71186e-011
